<svg xmlns="http://www.w3.org/2000/svg" x="0px" y="0px" width="500px" height="500px" viewBox="0 0 500 500"><defs><style>.a{fill:#f4f4f4;}.b{fill:#e0f1f8;}.c{fill:#9abfda;}.d{fill:#454b53;}.e{fill:#ff931e;}</style></defs><title>2Artboard 12</title><rect class="a" width="500" height="500" rx="75" ry="75"/><path class="b" d="M332,180.75c0,50.92-41,92.22-91.62,92.22s-91.59-41.3-91.59-92.22,41-92.2,91.59-92.2S332,129.85,332,180.75Z"/><path class="b" d="M339.61,425.93c1.28.62,2.59,1.17,3.91,1.69C342.2,427.1,340.89,426.55,339.61,425.93Z"/><path class="b" d="M326.61,417.16c-1.28-1.18-2.52-2.41-3.69-3.7C324.09,414.75,325.33,416,326.61,417.16Z"/><path class="b" d="M322.74,372.7a40.6,40.6,0,0,0-.21,4.15A40.6,40.6,0,0,1,322.74,372.7Z"/><path class="b" d="M343.94,325.93h0a54.32,54.32,0,0,0-13.29,7.3A54.32,54.32,0,0,1,343.94,325.93Z"/><path class="b" d="M326.61,417.16a56.31,56.31,0,0,0,5.28,4.21A56.31,56.31,0,0,1,326.61,417.16Z"/><path class="b" d="M321.21,342.23a54.64,54.64,0,0,1,5.4-5.67A54.64,54.64,0,0,0,321.21,342.23Z"/><path class="b" d="M316.66,348.63a54.1,54.1,0,0,0-3.6,7A54.1,54.1,0,0,1,316.66,348.63Z"/><path class="b" d="M321.21,342.23a54.82,54.82,0,0,0-4.55,6.4A54.82,54.82,0,0,1,321.21,342.23Z"/><path class="b" d="M329.47,354.11a41,41,0,0,0-2.93,5.11A41,41,0,0,1,329.47,354.11Z"/><path class="b" d="M318.08,407.29q1.47,2.18,3.13,4.19Q319.55,409.47,318.08,407.29Z"/><path class="b" d="M308.78,376.85a54.18,54.18,0,0,0,6.57,25.95,54.6,54.6,0,0,1-5.46-36.92A54.43,54.43,0,0,0,308.78,376.85Z"/><path class="b" d="M315.35,402.8q1.26,2.31,2.73,4.49Q316.61,405.11,315.35,402.8Z"/><path class="b" d="M343.18,304c-1.95.53-3.87,1.12-5.75,1.81C339.31,305.09,341.23,304.5,343.18,304Z"/><path class="b" d="M325.72,392.7a39.63,39.63,0,0,1-1.36-3.74A39.63,39.63,0,0,0,325.72,392.7Z"/><path class="b" d="M326.54,359.22a39.1,39.1,0,0,0-1.54,3.65A39.1,39.1,0,0,1,326.54,359.22Z"/><path class="b" d="M324.36,389a38.39,38.39,0,0,1-1-3.9A38.39,38.39,0,0,0,324.36,389Z"/><path class="b" d="M323.36,385.06a38.18,38.18,0,0,1-.62-4A38.18,38.18,0,0,0,323.36,385.06Z"/><path class="b" d="M277,426.27l7.32-9.27A87.3,87.3,0,0,1,279,404.26l-11.76-1.38a15.93,15.93,0,0,1-14-15.8V366.63a15.93,15.93,0,0,1,14-15.8L279,349.45a88.3,88.3,0,0,1,5.29-12.73l-7.3-9.26a16,16,0,0,1,1.22-21.13l14.46-14.46a16,16,0,0,1,21.1-1.22l9.28,7.31a86.56,86.56,0,0,1,12.72-5.28l1.39-11.75v-.12a16,16,0,0,1,6.73-11.06V254.23H138.32V427.72H276A15.58,15.58,0,0,1,277,426.27Z"/><path class="b" d="M293.5,327.52l6.37,8.08c-.63,1-1.23,1.94-1.82,2.93.59-1,1.19-2,1.82-2.93Z"/><path class="b" d="M292.13,351.08c.8-2.19,1.69-4.34,2.68-6.43C293.82,346.74,292.93,348.89,292.13,351.08Z"/><path class="b" d="M334.18,307c-2.14.9-4.24,1.89-6.27,3C329.94,308.93,332,307.94,334.18,307Z"/><path class="b" d="M290,357.79q.88-3.42,2.09-6.71Q290.93,354.37,290,357.79Z"/><path class="b" d="M289.23,392.46h0c.18.89.4,1.77.62,2.65C289.63,394.23,289.41,393.35,289.23,392.46Z"/><path class="b" d="M299.87,418.13a76.28,76.28,0,0,1-5.06-9.06,76.28,76.28,0,0,0,5.06,9.06l-6.37,8.07Z"/><path class="b" d="M305.79,300.78a2.44,2.44,0,0,0-.43-.28A2.44,2.44,0,0,1,305.79,300.78Z"/><path class="b" d="M289.23,361.25c.24-1.17.51-2.32.81-3.46-.3,1.14-.57,2.29-.81,3.46l-20.42,2.41Z"/><path class="b" d="M294.81,344.65q1.49-3.15,3.24-6.12Q296.29,341.5,294.81,344.65Z"/><path class="b" d="M303,300.32l-.21.07Z"/><path class="b" d="M302.43,300.56l-.16.09Z"/><polygon class="b" points="294.6 308.24 301.82 301.01 301.83 301 301.82 301.01 294.6 308.24"/><path class="b" d="M327.91,310q-3.06,1.62-6,3.5Q324.86,311.64,327.91,310Z"/><path class="b" d="M303.54,300.19l-.23,0Z"/><path class="b" d="M305.2,300.43a2.15,2.15,0,0,0-.32-.13A2.15,2.15,0,0,1,305.2,300.43Z"/><path class="b" d="M304.68,300.25a2.84,2.84,0,0,0-.31-.06A2.84,2.84,0,0,1,304.68,300.25Z"/><path class="b" d="M303.87,300.16h0Z"/><polygon class="c" points="269.83 363.53 268.81 363.65 269.83 363.53 269.83 363.53"/><path class="c" d="M253.26,387.07V366.62a15.9,15.9,0,0,1,13.93-15.77l-14.61-70.12H229.36l-20.42,99.48,32.18,25.73,14.09-11.27A15.79,15.79,0,0,1,253.26,387.07Z"/><path class="d" d="M253.26,387.07V381l-12.13,9.7-19-15.21,17-82.8h3.81l13.45,64.57a15.9,15.9,0,0,1,11-6.4L279,349.44l0-.08-14-67.45A103.27,103.27,0,0,0,311.7,256.2c12.5,6.14,21,13.84,25.71,23.43A16,16,0,0,1,353,266.89h4.56c-5.81-10.64-15.3-21-30.35-29.44a104,104,0,0,0,16.73-56.7c0-57.41-46.46-104.12-103.55-104.12s-103.52,46.7-103.52,104.12a104,104,0,0,0,16.85,56.88c-30.5,17.81-37.39,43.64-37.39,63.31V427.4a11.93,11.93,0,1,0,23.85,0V300.94c0-19.87,9.52-34.53,29-44.64a103.34,103.34,0,0,0,47.67,25.89l-19.62,95.62a11.91,11.91,0,0,0,4.24,11.71l32.18,25.73a11.92,11.92,0,0,0,14.89,0l16.15-12.91A15.93,15.93,0,0,1,253.26,387.07ZM160.73,180.75c0-44.26,35.73-80.27,79.66-80.27s79.7,36,79.7,80.27-35.75,80.3-79.7,80.3S160.73,225,160.73,180.75Z"/><path class="e" d="M457.63,363.66l-20.42-2.41a74.9,74.9,0,0,0-10.66-25.65l12.75-16.17a3.09,3.09,0,0,0-.23-4L424.61,301a3.06,3.06,0,0,0-4-.23l-16.15,12.73a75,75,0,0,0-25.66-10.63l-2.41-20.43a3.08,3.08,0,0,0-3-2.64H353a3.08,3.08,0,0,0-3,2.64l-2.42,20.43A75.11,75.11,0,0,0,322,313.51L305.8,300.78a3.07,3.07,0,0,0-4,.23l-14.45,14.45a3.07,3.07,0,0,0-.24,4l12.74,16.16a75.26,75.26,0,0,0-10.64,25.65l-20.42,2.41a3.07,3.07,0,0,0-2.64,3v20.45a3.09,3.09,0,0,0,2.64,3l20.42,2.4a75.36,75.36,0,0,0,10.64,25.67l-12.74,16.15a3,3,0,0,0,.24,4l10.52,10.53,3.93,3.93a3.07,3.07,0,0,0,4,.24l5.28-4.17L322,440.19a75.36,75.36,0,0,0,18,8.59,73.84,73.84,0,0,0,7.63,2.07L350,471.26a3.13,3.13,0,0,0,3,2.66l20.43,0a3,3,0,0,0,3-2.63l2.41-20.41a72.93,72.93,0,0,0,7.64-2.08,75.38,75.38,0,0,0,18-8.58l10.86,8.57,5.29,4.17a3.06,3.06,0,0,0,4-.23l3.93-3.94,10.52-10.52a3.05,3.05,0,0,0,.23-4l-12.74-16.15a75.18,75.18,0,0,0,10.65-25.67l20.43-2.4a3.1,3.1,0,0,0,2.64-3V366.63A3.09,3.09,0,0,0,457.63,363.66Zm-94.42-41.25a54.45,54.45,0,1,1-54.43,54.44A54.46,54.46,0,0,1,363.21,322.41Zm-28.77,83.22a40.69,40.69,0,1,0-11.91-28.78A40.59,40.59,0,0,0,334.44,405.63Zm28.77-43.95A15.18,15.18,0,1,1,348,376.85,15.18,15.18,0,0,1,363.21,361.68Z"/></svg>